<svg id="Flat" height="512" viewBox="0 0 512 512" width="512" xmlns="http://www.w3.org/2000/svg"><rect fill="#e9eef2" height="448" rx="16" transform="matrix(-1 0 0 -1 512 510.964)" width="464" x="24" y="31.482"/><path d="m488 47.482v48h-464v-48a16 16 0 0 1 16-16h432a16 16 0 0 1 16 16z" fill="#c3c6c7"/><circle cx="120" cy="63.482" fill="#e9eef2" r="8"/><circle cx="88" cy="63.482" fill="#e9eef2" r="8"/><circle cx="56" cy="63.482" fill="#e9eef2" r="8"/><path d="m72 144h368v128h-368z" fill="#2d85cc"/><circle cx="304" cy="192" fill="#f7cc38" r="8"/><path d="m248 272h-112l56-80z" fill="#75ab7d"/><path d="m376 272h-96l48-48z" fill="#75ab7d"/><path d="m312 272h-96l48-64z" fill="#88c791"/><rect fill="#eb423f" height="32" rx="16" width="64" x="224" y="400"/><g fill="#c3c6c7"><path d="m304 328h-96a8 8 0 0 1 0-16h96a8 8 0 0 1 0 16z"/><path d="m344 360h-176a8 8 0 0 1 0-16h176a8 8 0 0 1 0 16z"/><path d="m136 360h-16a8 8 0 0 1 0-16h16a8 8 0 0 1 0 16z"/><path d="m392 360h-16a8 8 0 0 1 0-16h16a8 8 0 0 1 0 16z"/></g></svg>