<?xml version="1.0"?>
<svg xmlns="http://www.w3.org/2000/svg" viewBox="0 0 512 512" width="512" height="512"><g id="Out_line" data-name="Out line"><rect x="16" y="248" width="48" height="16"/><rect x="248" y="16" width="16" height="48"/><rect x="448" y="248" width="48" height="16"/><rect x="248" y="448" width="16" height="48"/><path d="M488,128H456a8.00039,8.00039,0,0,1-8-8V64H392a8.00039,8.00039,0,0,1-8-8V24a8.00039,8.00039,0,0,1,8-8h96a8.00039,8.00039,0,0,1,8,8v96A8.00039,8.00039,0,0,1,488,128Zm-24-16h16V32H400V48h56a8.00039,8.00039,0,0,1,8,8Z"/><path d="M488,496H392a8.00039,8.00039,0,0,1-8-8V456a8.00039,8.00039,0,0,1,8-8h56V392a8.00039,8.00039,0,0,1,8-8h32a8.00039,8.00039,0,0,1,8,8v96A8.00039,8.00039,0,0,1,488,496Zm-88-16h80V400H464v56a8.00039,8.00039,0,0,1-8,8H400Z"/><path d="M120,496H24a8.00039,8.00039,0,0,1-8-8V392a8.00039,8.00039,0,0,1,8-8H56a8.00039,8.00039,0,0,1,8,8v56h56a8.00039,8.00039,0,0,1,8,8v32A8.00039,8.00039,0,0,1,120,496ZM32,480h80V464H56a8.00039,8.00039,0,0,1-8-8V400H32Z"/><path d="M56,128H24a8.00039,8.00039,0,0,1-8-8V24a8.00039,8.00039,0,0,1,8-8h96a8.00039,8.00039,0,0,1,8,8V56a8.00039,8.00039,0,0,1-8,8H64v56A8.00039,8.00039,0,0,1,56,128ZM32,112H48V56a8.00039,8.00039,0,0,1,8-8h56V32H32Z"/><circle cx="112" cy="208" r="8"/><circle cx="144" cy="208" r="8"/><rect x="88" y="328" width="16" height="40"/><rect x="152" y="328" width="16" height="40"/><circle cx="240" cy="208" r="8"/><circle cx="272" cy="208" r="8"/><rect x="216" y="328" width="16" height="40"/><rect x="280" y="328" width="16" height="40"/><path d="M423.17993,271.29,408,266.23v-8.6499A47.95934,47.95934,0,0,0,429.25,232H432a23.99573,23.99573,0,0,0,8-46.62012V160a23.98512,23.98512,0,0,0-40-17.87012A23.90042,23.90042,0,0,0,384,136H352a24.03189,24.03189,0,0,0-24,24v25.37988a23.90088,23.90088,0,0,0-8,4.75,23.72836,23.72836,0,0,0-8.40991-4.88989,55.99955,55.99955,0,0,0-111.18018,0A23.72836,23.72836,0,0,0,192,190.12988a23.72836,23.72836,0,0,0-8.40991-4.88989,55.99955,55.99955,0,0,0-111.18018,0A23.99525,23.99525,0,0,0,80,232h2.75A47.95934,47.95934,0,0,0,104,257.58008V266.23L88.82007,271.29A47.95219,47.95219,0,0,0,56,316.83008V368H72V316.83008A31.95168,31.95168,0,0,1,93.87988,286.47l12.4502-4.1499a24.00326,24.00326,0,0,0,43.33984,0l12.4502,4.1499A31.95168,31.95168,0,0,1,184,316.83008V368h16V316.83008A31.95168,31.95168,0,0,1,221.87988,286.47l12.4502-4.1499a24.00326,24.00326,0,0,0,43.33984,0l12.4502,4.1499A31.95168,31.95168,0,0,1,312,316.83008V368h16V316.83008A31.95168,31.95168,0,0,1,349.87988,286.47l12.4502-4.1499a24.00326,24.00326,0,0,0,43.33984,0l12.4502,4.1499A31.95168,31.95168,0,0,1,440,316.83008V368h16V316.83008A47.95219,47.95219,0,0,0,423.17993,271.29ZM432,200a8,8,0,0,1,0,16ZM80,216a8,8,0,0,1,0-16Zm336-64a8.01058,8.01058,0,0,1,8,8v22.62988A24.04409,24.04409,0,0,1,408,160,8.01058,8.01058,0,0,1,416,152Zm-72,8a8.01058,8.01058,0,0,1,8-8h32a8.01058,8.01058,0,0,1,8,8,24.03189,24.03189,0,0,1-24,24H344Zm-8,40v16a8,8,0,0,1,0-16Zm-32,0a8,8,0,0,1,0,16Zm-48-48a40.06909,40.06909,0,0,1,39.2,32H280V168H264v16H248V168H232v16H216.80005A40.06909,40.06909,0,0,1,256,152Zm-48,48v16a8,8,0,0,1,0-16Zm-32,0a8,8,0,0,1,0,16ZM88.80005,183.99a40.01245,40.01245,0,0,1,78.3999,0,36.75586,36.75586,0,0,1-29.85986-16.40015l-2.68018-4.02978a8.00948,8.00948,0,0,0-13.31982,0l-2.68018,4.02978A36.75586,36.75586,0,0,1,88.80005,183.99Zm52,61.34985a7.98816,7.98816,0,0,0-4.8,7.33008V272a8,8,0,0,1-16,0V252.66992a7.98816,7.98816,0,0,0-4.8-7.33008A32.02313,32.02313,0,0,1,96,216V199.39014a52.66587,52.66587,0,0,0,32-17.7002,52.66587,52.66587,0,0,0,32,17.7002V216A32.02313,32.02313,0,0,1,140.80005,245.33984ZM192,290.28a47.948,47.948,0,0,0-24.82007-18.99L152,266.23v-8.6499A47.95934,47.95934,0,0,0,173.25,232H176a23.90042,23.90042,0,0,0,16-6.12988,23.90088,23.90088,0,0,0,8,4.75V232a16.02116,16.02116,0,0,1-16,16,7.99585,7.99585,0,0,0-6.3999,12.8,88.13288,88.13288,0,0,0,21.95,20.6499A47.48032,47.48032,0,0,0,192,290.28Zm40-24.05L216.82007,271.29c-.63013.21-1.26.42993-1.88013.66992a72.33322,72.33322,0,0,1-16.27-11.52,32.18257,32.18257,0,0,0,16.14014-19.79A48.09694,48.09694,0,0,0,232,257.58008Zm36.80005-20.89014a7.98816,7.98816,0,0,0-4.8,7.33008V272a8,8,0,0,1-16,0V252.66992a7.98816,7.98816,0,0,0-4.8-7.33008A32.02313,32.02313,0,0,1,224,216V200h64v16A32.02313,32.02313,0,0,1,268.80005,245.33984Zm28.25,26.62012c-.61011-.24-1.24-.46-1.87012-.66992L280,266.23v-8.6499a48.09694,48.09694,0,0,0,17.18994-16.93018,32.18257,32.18257,0,0,0,16.14014,19.79A72.39246,72.39246,0,0,1,297.05005,271.96ZM360,266.23,344.82007,271.29A47.948,47.948,0,0,0,320,290.28a47.48032,47.48032,0,0,0-7.55-8.83008,88.13288,88.13288,0,0,0,21.95-20.6499A7.99585,7.99585,0,0,0,328,248a16.02116,16.02116,0,0,1-16-16v-1.37988a23.90088,23.90088,0,0,0,8-4.75A23.90042,23.90042,0,0,0,336,232h2.75A47.95934,47.95934,0,0,0,360,257.58008Zm36.80005-20.89014a7.98816,7.98816,0,0,0-4.8,7.33008V272a8,8,0,0,1-16,0V252.66992a7.98816,7.98816,0,0,0-4.8-7.33008A32.02313,32.02313,0,0,1,352,216V200h16a39.93254,39.93254,0,0,0,32-16.03,40.13415,40.13415,0,0,0,16,12.68994V216A32.02313,32.02313,0,0,1,396.80005,245.33984Z"/><circle cx="368" cy="208" r="8"/><circle cx="400" cy="208" r="8"/><rect x="344" y="328" width="16" height="40"/><rect x="408" y="328" width="16" height="40"/></g></svg>
