<svg height="512" viewBox="0 0 512 512" width="512" xmlns="http://www.w3.org/2000/svg"><g id="Fill_out_line" data-name="Fill out line"><path d="m160 192h16a16 16 0 0 1 16 16 16 16 0 0 1 -16 16h-16a0 0 0 0 1 0 0v-32a0 0 0 0 1 0 0z" fill="#f2c090"/><path d="m64 192h16a16 16 0 0 1 16 16 16 16 0 0 1 -16 16h-16a0 0 0 0 1 0 0v-32a0 0 0 0 1 0 0z" fill="#f2c090" transform="matrix(-1 0 0 -1 160 416)"/><path d="m164.64911 278.883-20.64911-6.883h-32l-20.64911 6.883a40 40 0 0 0 -27.35089 37.94737v51.16963h128v-51.16963a40 40 0 0 0 -27.35089-37.94737z" fill="#87cbe8"/><path d="m144 248v24a16 16 0 0 1 -32 0v-24z" fill="#f4cdac"/><path d="m168 192v24a40 40 0 0 1 -40 40 40 40 0 0 1 -40-40v-24l40-32z" fill="#f4cdac"/><path d="m176 192a48 48 0 0 0 -48-48 48 48 0 0 0 -48 48h8a44.84428 44.84428 0 0 0 37.31277-19.96915l2.68723-4.03085 2.68721 4.03081a44.84428 44.84428 0 0 0 37.31279 19.96919z" fill="#2e4055"/><path d="m408 176h24v16h-24z" fill="#262d44"/><path d="m416 192h16a16 16 0 0 1 16 16 16 16 0 0 1 -16 16h-16a0 0 0 0 1 0 0v-32a0 0 0 0 1 0 0z" fill="#f2c090"/><path d="m320 192h16a16 16 0 0 1 16 16 16 16 0 0 1 -16 16h-16a0 0 0 0 1 0 0v-32a0 0 0 0 1 0 0z" fill="#f2c090" transform="matrix(-1 0 0 -1 672 416)"/><path d="m420.64911 278.883-20.64911-6.883h-32l-20.64911 6.883a40 40 0 0 0 -27.35089 37.94737v51.16963h128v-51.16963a40 40 0 0 0 -27.35089-37.94737z" fill="#87cbe8"/><path d="m400 248v24a16 16 0 0 1 -32 0v-24z" fill="#f4cdac"/><path d="m424 192v24a40 40 0 0 1 -40 40 40 40 0 0 1 -40-40v-56h80z" fill="#f4cdac"/><path d="m400 160a32 32 0 0 1 -32 32h-32v-32a16 16 0 0 1 16-16h32.00007a16 16 0 0 1 15.99993 16z" fill="#2e4055"/><path d="m432 160v32a32 32 0 0 1 -32-32 16 16 0 0 1 16-16 16 16 0 0 1 16 16z" fill="#2e4055"/><path d="m328 256a80.01584 80.01584 0 0 1 -64 32h-16a80.02012 80.02012 0 0 1 -64-32 24.00309 24.00309 0 0 0 24-24v-32h96v32a24.002 24.002 0 0 0 24 24z" fill="#2e4055"/><path d="m292.64911 278.883-20.64911-6.883h-32l-20.64911 6.883a40 40 0 0 0 -27.35089 37.94737v51.16963h128v-51.16963a40 40 0 0 0 -27.35089-37.94737z" fill="#8bc826"/><path d="m272 248v24a16 16 0 0 1 -32 0v-24z" fill="#f4cdac"/><path d="m288 192h16a16 16 0 0 1 16 16 16 16 0 0 1 -16 16h-16a0 0 0 0 1 0 0v-32a0 0 0 0 1 0 0z" fill="#f2c090"/><path d="m192 192h16a16 16 0 0 1 16 16 16 16 0 0 1 -16 16h-16a0 0 0 0 1 0 0v-32a0 0 0 0 1 0 0z" fill="#f2c090" transform="matrix(-1 0 0 -1 416 416)"/><path d="m296 176v40a40 40 0 0 1 -40 40 40 40 0 0 1 -40-40v-40z" fill="#f4cdac"/><path d="m208 192a48 48 0 0 1 48-48h.0001a48 48 0 0 1 48 48z" fill="#2e4055"/><g fill="#eebe33"><path d="m488 120h-32v-64h-64v-32h96z"/><path d="m488 488h-96v-32h64v-64h32z"/><path d="m120 488h-96v-96h32v64h64z"/><path d="m56 120h-32v-96h96v32h-64z"/></g><path d="m16 248h48v16h-48z"/><path d="m248 16h16v48h-16z"/><path d="m448 248h48v16h-48z"/><path d="m248 448h16v48h-16z"/><path d="m488 128h-32a8.00039 8.00039 0 0 1 -8-8v-56h-56a8.00039 8.00039 0 0 1 -8-8v-32a8.00039 8.00039 0 0 1 8-8h96a8.00039 8.00039 0 0 1 8 8v96a8.00039 8.00039 0 0 1 -8 8zm-24-16h16v-80h-80v16h56a8.00039 8.00039 0 0 1 8 8z"/><path d="m488 496h-96a8.00039 8.00039 0 0 1 -8-8v-32a8.00039 8.00039 0 0 1 8-8h56v-56a8.00039 8.00039 0 0 1 8-8h32a8.00039 8.00039 0 0 1 8 8v96a8.00039 8.00039 0 0 1 -8 8zm-88-16h80v-80h-16v56a8.00039 8.00039 0 0 1 -8 8h-56z"/><path d="m120 496h-96a8.00039 8.00039 0 0 1 -8-8v-96a8.00039 8.00039 0 0 1 8-8h32a8.00039 8.00039 0 0 1 8 8v56h56a8.00039 8.00039 0 0 1 8 8v32a8.00039 8.00039 0 0 1 -8 8zm-88-16h80v-16h-56a8.00039 8.00039 0 0 1 -8-8v-56h-16z"/><path d="m56 128h-32a8.00039 8.00039 0 0 1 -8-8v-96a8.00039 8.00039 0 0 1 8-8h96a8.00039 8.00039 0 0 1 8 8v32a8.00039 8.00039 0 0 1 -8 8h-56v56a8.00039 8.00039 0 0 1 -8 8zm-24-16h16v-56a8.00039 8.00039 0 0 1 8-8h56v-16h-80z"/><circle cx="112" cy="208" r="8"/><circle cx="144" cy="208" r="8"/><path d="m88 328h16v40h-16z"/><path d="m152 328h16v40h-16z"/><circle cx="240" cy="208" r="8"/><circle cx="272" cy="208" r="8"/><path d="m216 328h16v40h-16z"/><path d="m280 328h16v40h-16z"/><path d="m423.17993 271.29-15.17993-5.06v-8.6499a47.95934 47.95934 0 0 0 21.25-25.5801h2.75a23.99573 23.99573 0 0 0 8-46.62012v-25.37988a23.98512 23.98512 0 0 0 -40-17.87012 23.90042 23.90042 0 0 0 -16-6.12988h-32a24.03189 24.03189 0 0 0 -24 24v25.37988a23.90088 23.90088 0 0 0 -8 4.75 23.72836 23.72836 0 0 0 -8.40991-4.88989 55.99955 55.99955 0 0 0 -111.18018 0 23.72836 23.72836 0 0 0 -8.40991 4.88989 23.72836 23.72836 0 0 0 -8.40991-4.88989 55.99955 55.99955 0 0 0 -111.18018 0 23.99525 23.99525 0 0 0 7.59009 46.76001h2.75a47.95934 47.95934 0 0 0 21.25 25.58008v8.64992l-15.17993 5.06a47.95219 47.95219 0 0 0 -32.82007 45.54008v51.16992h16v-51.16992a31.95168 31.95168 0 0 1 21.87988-30.36008l12.4502-4.1499a24.00326 24.00326 0 0 0 43.33984 0l12.4502 4.1499a31.95168 31.95168 0 0 1 21.87988 30.36008v51.16992h16v-51.16992a31.95168 31.95168 0 0 1 21.87988-30.36008l12.4502-4.1499a24.00326 24.00326 0 0 0 43.33984 0l12.4502 4.1499a31.95168 31.95168 0 0 1 21.87988 30.36008v51.16992h16v-51.16992a31.95168 31.95168 0 0 1 21.87988-30.36008l12.4502-4.1499a24.00326 24.00326 0 0 0 43.33984 0l12.4502 4.1499a31.95168 31.95168 0 0 1 21.87988 30.36008v51.16992h16v-51.16992a47.95219 47.95219 0 0 0 -32.82007-45.54008zm8.82007-71.29a8 8 0 0 1 0 16zm-352 16a8 8 0 0 1 0-16zm336-64a8.01058 8.01058 0 0 1 8 8v22.62988a24.04409 24.04409 0 0 1 -16-22.62988 8.01058 8.01058 0 0 1 8-8zm-72 8a8.01058 8.01058 0 0 1 8-8h32a8.01058 8.01058 0 0 1 8 8 24.03189 24.03189 0 0 1 -24 24h-24zm-8 40v16a8 8 0 0 1 0-16zm-32 0a8 8 0 0 1 0 16zm-48-48a40.06909 40.06909 0 0 1 39.2 32h-15.2v-16h-16v16h-16v-16h-16v16h-15.19995a40.06909 40.06909 0 0 1 39.19995-32zm-48 48v16a8 8 0 0 1 0-16zm-32 0a8 8 0 0 1 0 16zm-87.19995-16.01a40.01245 40.01245 0 0 1 78.3999 0 36.75586 36.75586 0 0 1 -29.85986-16.40015l-2.68018-4.02978a8.00948 8.00948 0 0 0 -13.31982 0l-2.68018 4.02978a36.75586 36.75586 0 0 1 -29.85986 16.40015zm52 61.34985a7.98816 7.98816 0 0 0 -4.8 7.33008v19.33007a8 8 0 0 1 -16 0v-19.33008a7.98816 7.98816 0 0 0 -4.8-7.33008 32.02313 32.02313 0 0 1 -19.20005-29.33984v-16.60986a52.66587 52.66587 0 0 0 32-17.7002 52.66587 52.66587 0 0 0 32 17.7002v16.60986a32.02313 32.02313 0 0 1 -19.19995 29.33984zm51.19995 44.94015a47.948 47.948 0 0 0 -24.82007-18.99l-15.17993-5.06v-8.6499a47.95934 47.95934 0 0 0 21.25-25.5801h2.75a23.90042 23.90042 0 0 0 16-6.12988 23.90088 23.90088 0 0 0 8 4.75v1.37988a16.02116 16.02116 0 0 1 -16 16 7.99585 7.99585 0 0 0 -6.3999 12.8 88.13288 88.13288 0 0 0 21.95 20.6499 47.48032 47.48032 0 0 0 -7.5501 8.8301zm40-24.05-15.17993 5.06c-.63013.21-1.26.42993-1.88013.66992a72.33322 72.33322 0 0 1 -16.27-11.52 32.18257 32.18257 0 0 0 16.14014-19.79 48.09694 48.09694 0 0 0 17.18992 16.93016zm36.80005-20.89014a7.98816 7.98816 0 0 0 -4.8 7.33008v19.33006a8 8 0 0 1 -16 0v-19.33008a7.98816 7.98816 0 0 0 -4.8-7.33008 32.02313 32.02313 0 0 1 -19.20005-29.33984v-16h64v16a32.02313 32.02313 0 0 1 -19.19995 29.33984zm28.25 26.62012c-.61011-.24-1.24-.46-1.87012-.66992l-15.17993-5.06006v-8.6499a48.09694 48.09694 0 0 0 17.18994-16.93018 32.18257 32.18257 0 0 0 16.14014 19.79 72.39246 72.39246 0 0 1 -16.28003 11.52008zm62.94995-5.72998-15.17993 5.06a47.948 47.948 0 0 0 -24.82007 18.99 47.48032 47.48032 0 0 0 -7.55-8.83008 88.13288 88.13288 0 0 0 21.95-20.6499 7.99585 7.99585 0 0 0 -6.4-12.80002 16.02116 16.02116 0 0 1 -16-16v-1.37988a23.90088 23.90088 0 0 0 8-4.75 23.90042 23.90042 0 0 0 16 6.12988h2.75a47.95934 47.95934 0 0 0 21.25 25.58008zm36.80005-20.89014a7.98816 7.98816 0 0 0 -4.8 7.33008v19.33006a8 8 0 0 1 -16 0v-19.33008a7.98816 7.98816 0 0 0 -4.8-7.33008 32.02313 32.02313 0 0 1 -19.20005-29.33984v-16h16a39.93254 39.93254 0 0 0 32-16.03 40.13415 40.13415 0 0 0 16 12.68994v19.34006a32.02313 32.02313 0 0 1 -19.19995 29.33984z"/><circle cx="368" cy="208" r="8"/><circle cx="400" cy="208" r="8"/><path d="m344 328h16v40h-16z"/><path d="m408 328h16v40h-16z"/></g></svg>